<svg width="153" height="10" viewBox="0 0 153 10" fill="none" xmlns="http://www.w3.org/2000/svg">
<path d="M151.112 9.49995C101.315 3.47409 51.212 2.86681 1.33595 7.68458C1.1716 7.70025 1.00646 7.67381 0.850098 7.60679C0.693736 7.53978 0.549252 7.43352 0.42501 7.29417C0.300767 7.15482 0.199231 6.98514 0.126279 6.79496C0.0533262 6.60477 0.0104054 6.39786 0 6.18618C0.00837449 5.76699 0.137509 5.36676 0.362325 5.06323C0.587139 4.7597 0.891587 4.57454 1.21654 4.54371C51.2214 -0.940818 101.099 -0.671875 151.082 4.28437C151.352 4.30631 151.617 4.39694 151.86 4.55102C152.103 4.7051 152.32 4.91959 152.498 5.18212C152.676 5.44465 152.812 5.75001 152.899 6.0806C152.985 6.41119 153.019 6.76047 153 7.10827C152.979 7.74067 152.773 8.33938 152.422 8.78336C152.072 9.22734 151.603 9.48347 151.112 9.49995Z" fill="#39B54A"/>
</svg>
